<svg width="512" height="512" viewBox="0 0 512 512" fill="none" xmlns="http://www.w3.org/2000/svg">
<g clip-path="url(#clip0_2_2)">
<rect y="512" width="512" height="512" rx="105" transform="rotate(-90 0 512)" fill="black"/>
<path d="M221.286 414.072V444.006C221.286 460.893 201.967 471.454 186.473 463.04L80.7063 405.525L57.5738 392.845C50.4071 388.914 45.9949 381.681 45.9949 373.845V233.177C45.9949 216.287 65.3272 205.716 80.8083 214.154L123.745 237.529C120.276 248.68 118.542 260.167 118.542 271.981C118.542 283.795 120.276 295.272 123.401 306.435C129.993 328.096 142.146 347.444 158.112 363.201C171.999 376.328 188.539 386.72 207.042 393.375C215.893 396.556 221.286 405.116 221.286 414.072Z" fill="white"/>
<path d="M396.566 157.158L368.828 172.372C360.528 176.928 349.828 176.82 342.394 171.07C318.917 152.891 288.745 142.041 256.023 142.041C223.302 142.041 193.117 152.891 169.653 171.07C162.218 176.82 151.519 176.928 143.217 172.372L115.482 157.158C100.026 148.684 100.064 127.576 115.545 119.149L244.419 48.9293C251.598 45.0235 260.435 45.0235 267.615 48.9293L396.501 119.137C411.983 127.563 412.02 148.683 396.566 157.158Z" fill="white"/>
<path d="M466.013 233.177V373.847C466.013 381.669 461.601 388.914 454.433 392.845L431.301 405.527L325.535 463.041C310.053 471.467 290.721 460.895 290.721 444.006V414.086C290.721 405.116 296.114 396.546 304.99 393.363C323.57 386.709 340.289 376.318 353.896 363.189C370.206 347.446 382.357 327.761 388.607 306.097C391.73 295.272 393.465 283.783 393.465 271.971C393.465 260.157 391.73 248.668 388.262 237.517L431.198 214.142C446.68 205.716 466.013 216.289 466.013 233.177Z" fill="white"/>
</g>
<defs>
<clipPath id="clip0_2_2">
<rect width="512" height="512" fill="white" transform="translate(0 512) rotate(-90)"/>
</clipPath>
</defs>
</svg>
