<svg xmlns="http://www.w3.org/2000/svg" width="153" height="50" viewBox="0 0 153 50" fill="none" class="mdl-js">
    <path fill-rule="evenodd" clip-rule="evenodd" d="M15.5492 48.9714C24.1368 48.9714 31.0984 42.0516 31.0984 33.5157C31.0984 24.9797 24.1368 18.0599 15.5492 18.0599C6.96162 18.0599 0 24.9797 0 33.5157C0 42.0516 6.96162 48.9714 15.5492 48.9714ZM15.5997 42.8691C20.8245 42.8691 25.06 38.659 25.06 33.4656C25.06 28.2722 20.8245 24.0621 15.5997 24.0621C10.3748 24.0621 6.13929 28.2722 6.13929 33.4656C6.13929 38.659 10.3748 42.8691 15.5997 42.8691Z" fill="#F4F4F4"/>
    <g filter="url(#filter0_d_2068_4836)">
    <path fill-rule="evenodd" clip-rule="evenodd" d="M29.78 27.3426C28.9852 28.1493 28.2691 29.033 27.643 29.9822L26.9368 31.0529C26.5213 31.683 25.5869 31.6675 25.1928 31.0239L24.8541 30.4709C23.4358 28.155 21.4936 26.1999 19.1819 24.7608L18.367 24.2536C17.7336 23.8593 17.7648 22.9322 18.4232 22.5809C19.8853 21.8008 21.2132 20.8108 22.3678 19.6495C25.6656 21.2537 28.3062 23.987 29.78 27.3426Z" fill="#0085EA" fill-opacity="0.6" shape-rendering="crispEdges"/>
    </g>
    <g filter="url(#filter1_d_2068_4836)">
    <path fill-rule="evenodd" clip-rule="evenodd" d="M26.9766 15.7456C26.5515 15.1009 25.5896 15.1355 25.2124 15.8091L25.0565 16.0875C23.5161 18.8383 21.2139 21.092 18.4232 22.5809C17.7648 22.9322 17.7336 23.8594 18.367 24.2536L19.1819 24.7609C21.4936 26.1999 23.4358 28.155 24.8541 30.4709L25.1928 31.024C25.5692 31.6386 26.4384 31.6804 26.8778 31.134C26.4384 31.6805 25.5692 31.6387 25.1928 31.0241L24.854 30.471C23.4357 28.1551 21.4935 26.2 19.1818 24.761L18.3669 24.2537C17.7336 23.8595 17.7648 22.9323 18.4232 22.581C19.8852 21.8009 21.2132 20.811 22.3677 19.6496C25.6656 21.2539 28.3062 23.9871 29.7799 27.3428C29.7347 27.3887 29.6897 27.4349 29.645 27.4813C29.6897 27.4349 29.7347 27.3887 29.78 27.3428C29.78 27.3428 29.7799 27.3428 29.7799 27.3428C30.6603 26.4492 31.6371 25.6501 32.6949 24.9608L33.8214 24.2267C34.4428 23.8218 34.4428 22.9164 33.8214 22.5115L32.6949 21.7775C30.6822 20.4659 28.9625 18.7566 27.643 16.756L26.9766 15.7456ZM27.8951 29.6106C27.8095 29.7333 27.7255 29.8573 27.643 29.9823L27.643 29.9823C27.7255 29.8572 27.8095 29.7333 27.8951 29.6106ZM26.9368 31.053C26.9182 31.0813 26.8984 31.1083 26.8778 31.134C26.8984 31.1084 26.9181 31.0814 26.9368 31.0531L26.9368 31.053Z" fill="#0085EA"/>
    </g>
    <g filter="url(#filter2_f_2068_4836)">
    <path fill-rule="evenodd" clip-rule="evenodd" d="M26.9766 15.7456C26.5515 15.1009 25.5896 15.1355 25.2124 15.8091L25.0565 16.0875C23.5161 18.8383 21.2139 21.092 18.4232 22.5809C17.7648 22.9322 17.7336 23.8594 18.367 24.2536L19.1819 24.7609C21.4936 26.1999 23.4358 28.155 24.8541 30.4709L25.1928 31.024C25.5692 31.6386 26.4384 31.6804 26.8778 31.134C26.4384 31.6805 25.5692 31.6387 25.1928 31.0241L24.854 30.471C23.4357 28.1551 21.4935 26.2 19.1818 24.761L18.3669 24.2537C17.7336 23.8595 17.7648 22.9323 18.4232 22.581C19.8852 21.8009 21.2132 20.811 22.3677 19.6496C25.6656 21.2539 28.3062 23.9871 29.7799 27.3428C29.7347 27.3887 29.6897 27.4349 29.645 27.4813C29.6897 27.4349 29.7347 27.3887 29.78 27.3428C29.78 27.3428 29.7799 27.3428 29.7799 27.3428C30.6603 26.4492 31.6371 25.6501 32.6949 24.9608L33.8214 24.2267C34.4428 23.8218 34.4428 22.9164 33.8214 22.5115L32.6949 21.7775C30.6822 20.4659 28.9625 18.7566 27.643 16.756L26.9766 15.7456ZM27.8951 29.6106C27.8095 29.7333 27.7255 29.8573 27.643 29.9823L27.643 29.9823C27.7255 29.8572 27.8095 29.7333 27.8951 29.6106ZM26.9368 31.053C26.9182 31.0813 26.8984 31.1083 26.8778 31.134C26.8984 31.1084 26.9181 31.0814 26.9368 31.0531L26.9368 31.053Z" fill="#0085EA"/>
    </g>
    <path d="M55.9076 26.028V28.332C54.5396 26.784 52.5596 25.92 50.0756 25.92C44.6036 25.92 40.6436 29.844 40.6436 35.532C40.6436 41.184 44.6036 45.468 50.0756 45.468C52.5596 45.468 54.5396 44.532 55.9076 42.912V45H60.8396V26.028H55.9076ZM50.8316 40.752C47.9876 40.752 45.9356 38.556 45.9356 35.532C45.9356 32.508 47.9876 30.276 50.8316 30.276C53.7476 30.276 55.7276 32.436 55.7276 35.532C55.7276 38.628 53.7476 40.752 50.8316 40.752ZM73.4964 45H76.6284V40.356H74.6124C72.7404 40.356 71.6964 39.276 71.6964 37.26V30.564H76.4844V26.028H71.8764V21.024H66.6924V23.976C66.6924 25.344 66.0444 26.028 64.7484 26.028H63.1284V30.564H66.3684V37.908C66.3684 42.192 68.7804 45 73.4964 45ZM79.16 45H84.488V18.684H79.16V45ZM102.701 26.028V28.332C101.333 26.784 99.3526 25.92 96.8686 25.92C91.3966 25.92 87.4366 29.844 87.4366 35.532C87.4366 41.184 91.3966 45.468 96.8686 45.468C99.3526 45.468 101.333 44.532 102.701 42.912V45H107.633V26.028H102.701ZM97.6246 40.752C94.7806 40.752 92.7286 38.556 92.7286 35.532C92.7286 32.508 94.7806 30.276 97.6246 30.276C100.541 30.276 102.521 32.436 102.521 35.532C102.521 38.628 100.541 40.752 97.6246 40.752ZM118.453 45.468C123.313 45.468 126.445 43.128 126.445 39.312C126.445 32.328 116.293 34.164 116.293 31.104C116.293 30.132 117.085 29.556 118.525 29.556C119.929 29.556 120.937 30.204 121.405 31.5L125.905 29.772C125.113 27.144 122.377 25.596 118.597 25.596C113.989 25.596 111.037 27.792 111.037 31.392C111.037 37.908 121.153 36.324 121.153 39.636C121.153 40.716 120.217 41.364 118.633 41.364C116.509 41.364 115.141 40.392 114.637 38.736L110.137 40.464C111.217 43.74 114.241 45.468 118.453 45.468Z" fill="#F4F4F4"/>
    <path d="M143.142 30.024L149.19 24.156V19.98H132.594V24.156H143.178L136.878 29.988V33.516H140.982C143.214 33.516 144.978 34.884 144.978 37.152C144.978 39.312 143.358 40.896 140.874 40.896C138.498 40.896 136.77 39.636 136.194 37.692L131.298 39.636C132.342 43.128 136.086 45.468 141.018 45.468C146.562 45.468 150.486 42.048 150.486 37.512C150.486 33.372 147.462 30.276 143.142 30.024Z" fill="#0085EA"/>
    <defs>
    <filter id="filter0_d_2068_4836" x="8.65301" y="13.9923" width="26.2701" height="26.2667" filterUnits="userSpaceOnUse" color-interpolation-filters="sRGB">
    <feFlood flood-opacity="0" result="BackgroundImageFix"/>
    <feColorMatrix in="SourceAlpha" type="matrix" values="0 0 0 0 0 0 0 0 0 0 0 0 0 0 0 0 0 0 127 0" result="hardAlpha"/>
    <feOffset dx="-2.05714" dy="1.54286"/>
    <feGaussianBlur stdDeviation="3.6"/>
    <feComposite in2="hardAlpha" operator="out"/>
    <feColorMatrix type="matrix" values="0 0 0 0 0.0141667 0 0 0 0 0.328194 0 0 0 0 0.566667 0 0 0 0.45 0"/>
    <feBlend mode="normal" in2="BackgroundImageFix" result="effect1_dropShadow_2068_4836"/>
    <feBlend mode="normal" in="SourceGraphic" in2="effect1_dropShadow_2068_4836" result="shape"/>
    </filter>
    <filter id="filter1_d_2068_4836" x="9.1673" y="0.882348" width="41.0627" height="40.9197" filterUnits="userSpaceOnUse" color-interpolation-filters="sRGB">
    <feFlood flood-opacity="0" result="BackgroundImageFix"/>
    <feColorMatrix in="SourceAlpha" type="matrix" values="0 0 0 0 0 0 0 0 0 0 0 0 0 0 0 0 0 0 127 0" result="hardAlpha"/>
    <feOffset dx="3.6" dy="-2.05714"/>
    <feGaussianBlur stdDeviation="6.17143"/>
    <feComposite in2="hardAlpha" operator="out"/>
    <feColorMatrix type="matrix" values="0 0 0 0 0 0 0 0 0 0.521569 0 0 0 0 0.917647 0 0 0 0.35 0"/>
    <feBlend mode="normal" in2="BackgroundImageFix" result="effect1_dropShadow_2068_4836"/>
    <feBlend mode="normal" in="SourceGraphic" in2="effect1_dropShadow_2068_4836" result="shape"/>
    </filter>
    <filter id="filter2_f_2068_4836" x="5.5673" y="2.93949" width="41.0627" height="40.9197" filterUnits="userSpaceOnUse" color-interpolation-filters="sRGB">
    <feFlood flood-opacity="0" result="BackgroundImageFix"/>
    <feBlend mode="normal" in="SourceGraphic" in2="BackgroundImageFix" result="shape"/>
    <feGaussianBlur stdDeviation="6.17143" result="effect1_foregroundBlur_2068_4836"/>
    </filter>
    </defs>
    </svg>