<svg xmlns="http://www.w3.org/2000/svg" width="192" height="62" viewBox="0 0 192 62" fill="none"
    class="mdl-js">
    <g clip-path="url(#clip0_2387_4199)">
        <path
            d="M43.6803 35.3268V38.6421L41.0872 36.0639L31.8337 35.965V36.0639L25.1705 42.6915V60.739L21.8389 57.4238V42.6915L25.1705 39.3763L31.8337 32.7486H41.0872L43.6803 35.3268Z"
            fill="white" />
        <path
            d="M38.8431 18.9568L41.334 27.5837H38.1046L35.7217 19.2363L27.7349 15.554H0L4.62675 10.951H26.454L24.3493 2.26476L27.5503 0L29.9986 9.27647L34.222 12.0411L36.568 10.3806L34.0317 0.991184L38.1046 3.54115L41.6435 16.4746L38.8431 18.9568Z"
            fill="white" />
        <path d="M35.165 40.4832H38.4966V61.8431H35.165V40.4832Z" fill="white" />
        <path
            d="M11.8439 26.1181V50.0591L8.51519 46.7438V31.2746L5.18359 27.9593V19.4905L8.51519 22.8057L11.8439 26.1181Z"
            fill="white" />
        <path d="M1.85156 35.3268H5.18316V42.3244L1.85156 39.0092V35.3268Z" fill="white" />
        <path d="M15.1758 40.1133L18.5074 36.7981V58.895L15.1758 55.5797V40.1105V40.1133Z"
            fill="white" />
        <path d="M41.8281 44.5327L45.1597 47.848V54.8456L41.8281 58.1608V44.5355V44.5327Z"
            fill="white" />
        <path d="M31.8336 46.0068V61.8431H28.502V49.322L31.8336 46.0068Z" fill="white" />
        <path
            d="M16.9478 5.21008L11.3951 1.89484L7.87891 5.21008L8.51512 7.22069H16.0219L16.9478 5.21008Z"
            fill="white" />
        <path d="M22.3926 32.9322V36.6173L16.3457 30.7098V27.2251L22.3926 32.9322Z" fill="white" />
        <path
            d="M24.8007 21.6931L31.4014 24.3108L32.387 27.5837H27.5784L24.7979 21.6903L24.8007 21.6931Z"
            fill="white" />
        <path
            d="M64.8959 42.7794C62.3805 42.6074 60.4475 41.9779 59.0885 40.8869C57.4382 39.5609 56.6152 37.6055 56.6152 35.029L60.4053 33.254H60.6036V35.029C60.6036 36.6194 61.0341 37.8027 61.8993 38.579C62.7223 39.3007 63.7226 39.6616 64.8917 39.6616C66.1705 39.6616 67.2003 39.2588 67.9853 38.4573C68.783 37.6558 69.1839 36.5187 69.1839 35.0458C69.1839 33.5729 68.7408 32.5406 67.846 31.9909C67.0737 31.5168 66.0819 31.2818 64.8748 31.2818C61.7643 31.2818 59.5949 30.5726 58.371 29.1501C57.759 28.4283 57.4509 27.1107 57.4509 25.2056L64.8917 19.5072C66.8331 19.5449 68.4622 20.124 69.779 21.2444C70.8426 22.1508 71.501 23.3341 71.7542 24.7944L67.9642 26.5694H67.7658V25.9987C67.7658 25.0504 67.5675 24.337 67.1665 23.8503C66.5039 23.0362 65.5923 22.6292 64.4359 22.6292C63.2794 22.6292 62.4353 22.9858 61.8613 23.695C61.4477 24.2069 61.2451 24.8406 61.2451 25.5875C61.2451 26.4309 61.6039 27.0981 62.3214 27.5975C62.7223 27.8744 63.5706 28.0129 64.8748 28.0129C67.7321 28.0129 69.7875 28.5584 71.0367 29.6494C72.4591 30.8873 73.1723 33.1533 73.1723 36.4515L64.8917 42.7836L64.8959 42.7794Z"
            fill="white" />
        <path
            d="M78.5586 42.7794V25.8393L86.8392 19.5072C89.38 19.6792 91.313 20.3087 92.6467 21.3997C93.3388 21.9662 93.8917 22.6376 94.3011 23.4097L99.408 19.503C101.923 19.675 103.856 20.3045 105.215 21.3955C106.866 22.7215 107.689 24.6769 107.689 27.2534V41.0002L103.899 42.7752H103.7V27.2534C103.7 25.6085 103.27 24.4252 102.405 23.7034C101.539 22.9817 100.543 22.6208 99.4122 22.6208C98.1629 22.6208 97.1246 23.0236 96.3016 23.8251C95.5166 24.5888 95.1241 25.7302 95.1241 27.2576V41.0044L91.3341 42.7794H91.1357V27.2576C91.1357 25.6127 90.701 24.4294 89.84 23.7076C88.9748 22.9859 87.9788 22.625 86.8477 22.625C85.5984 22.625 84.5602 23.0278 83.7372 23.8293C82.9522 24.593 82.5596 25.7344 82.5596 27.2618V41.0086L78.7696 42.7836H78.5713L78.5586 42.7794Z"
            fill="white" />
        <path
            d="M121.949 42.7794C119.433 42.6074 117.5 41.978 116.141 40.8869C114.491 39.5609 113.668 37.6055 113.668 35.029V21.2822L117.458 19.5072H117.656V35.029C117.656 36.6739 118.087 37.8573 118.952 38.579C119.817 39.3008 120.809 39.6616 121.923 39.6616C123.038 39.6616 124.11 39.2588 125.055 38.4573C125.84 37.7859 126.232 36.6446 126.232 35.0248V21.278L130.022 19.503H130.221V44.5293L121.94 50.8614C119.159 50.6767 117.239 50.0599 116.175 49.0066L118.948 46.6609C119.746 47.3827 120.729 47.7436 121.902 47.7436C123.076 47.7436 124.152 47.3407 125.055 46.5392C125.84 45.8427 126.232 44.6971 126.232 43.1067V39.477L121.944 42.771L121.949 42.7794Z"
            fill="white" />
        <path
            d="M139.705 42.7794V22.8599H134.319V22.6627L135.459 20.2961H139.709V13.1961L143.499 11.4211H143.697V20.2961H149.083V20.4933L147.947 22.8599H143.697V41.0044L139.907 42.7794H139.709H139.705Z"
            fill="white" />
        <path
            d="M153.168 42.7794V13.1961L156.958 11.4211H157.156V22.8012L161.444 19.5072C163.96 19.6792 165.893 20.3086 167.248 21.3997C168.898 22.7257 169.721 24.6811 169.721 27.2576V41.0044L165.931 42.7794H165.732V27.2576C165.732 25.7344 165.302 24.551 164.437 23.7076C163.69 22.9858 162.694 22.625 161.444 22.625C160.195 22.625 159.115 23.032 158.334 23.8461C157.549 24.6475 157.156 25.7847 157.156 27.2576V41.0044L153.366 42.7794H153.168Z"
            fill="white" />
        <path
            d="M183.392 42.7794C180.877 42.6074 178.944 41.9779 177.585 40.8869C175.934 39.5609 175.111 37.6055 175.111 35.029L178.901 33.254H179.1V35.029C179.1 36.6194 179.53 37.8027 180.395 38.579C181.218 39.3007 182.219 39.6616 183.388 39.6616C184.662 39.6616 185.696 39.2588 186.481 38.4573C187.279 37.6558 187.68 36.5187 187.68 35.0458C187.68 33.5729 187.233 32.5406 186.342 31.9909C185.57 31.5168 184.578 31.2818 183.371 31.2818C180.26 31.2818 178.091 30.5726 176.867 29.1501C176.255 28.4283 175.947 27.1107 175.947 25.2056L183.388 19.5072C185.329 19.5449 186.958 20.124 188.275 21.2444C189.339 22.1508 189.997 23.3341 190.25 24.7944L186.46 26.5694H186.262V25.9987C186.262 25.0504 186.064 24.337 185.663 23.8503C184.996 23.0362 184.084 22.6292 182.928 22.6292C181.771 22.6292 180.927 22.9858 180.353 23.695C179.94 24.2069 179.737 24.8406 179.737 25.5875C179.737 26.4309 180.096 27.0981 180.813 27.5975C181.214 27.8744 182.063 28.0129 183.367 28.0129C186.224 28.0129 188.279 28.5584 189.533 29.6494C190.955 30.8873 191.668 33.1533 191.668 36.4515L183.388 42.7836L183.392 42.7794Z"
            fill="white" />
    </g>
    <defs>
        <clipPath id="clip0_2387_4199">
            <rect width="192" height="62" fill="white" />
        </clipPath>
    </defs>
</svg>